HIERARCHY
ROOT Hips
{
  OFFSET -85.1953 93.1567 9.11387
  CHANNELS 6 Xposition Yposition Zposition Zrotation Xrotation Yrotation
  JOINT Spine
  {
    OFFSET 0 0 4.66705
    CHANNELS 6 Xposition Yposition Zposition Zrotation Xrotation Yrotation
    JOINT Spine1
    {
      OFFSET 9.33409 0 0
      CHANNELS 6 Xposition Yposition Zposition Zrotation Xrotation Yrotation
      JOINT Spine2
      {
        OFFSET 11.0269 0 0
        CHANNELS 6 Xposition Yposition Zposition Zrotation Xrotation Yrotation
        JOINT Neck
        {
          OFFSET 27.2125 0 -10.2659
          CHANNELS 6 Xposition Yposition Zposition Zrotation Xrotation Yrotation
          JOINT Head
          {
            OFFSET 10.9224 0 0
            CHANNELS 6 Xposition Yposition Zposition Zrotation Xrotation Yrotation
            End Site
            {
              OFFSET 17.6932 0 0
            }
          }
        }
        JOINT RightShoulder
        {
          OFFSET 23.8429 -1.55531 -7.12573
          CHANNELS 6 Xposition Yposition Zposition Zrotation Xrotation Yrotation
          JOINT RightArm
          {
            OFFSET 14.1892 0 0
            CHANNELS 6 Xposition Yposition Zposition Zrotation Xrotation Yrotation
            JOINT RightForeArm
            {
              OFFSET 29.5651 0 0
              CHANNELS 6 Xposition Yposition Zposition Zrotation Xrotation Yrotation
              JOINT RightHand
              {
                OFFSET 25.3936 0 0
                CHANNELS 6 Xposition Yposition Zposition Zrotation Xrotation Yrotation
                JOINT RightFingerBase
                {
                  OFFSET 2.18163 0 0
                  CHANNELS 6 Xposition Yposition Zposition Zrotation Xrotation Yrotation
                  JOINT RightHandMiddle1
                  {
                    OFFSET 6.77462 0.0865053 -1.22157
                    CHANNELS 6 Xposition Yposition Zposition Zrotation Xrotation Yrotation
                    End Site
                    {
                      OFFSET 0 0 0
                    }
                  }
                }
              }
            }
          }
        }
        JOINT LeftShoulder
        {
          OFFSET 23.8431 1.55531 -7.12577
          CHANNELS 6 Xposition Yposition Zposition Zrotation Xrotation Yrotation
          JOINT LeftArm
          {
            OFFSET -14.1892 0.000694916 0
            CHANNELS 6 Xposition Yposition Zposition Zrotation Xrotation Yrotation
            JOINT LeftForeArm
            {
              OFFSET -29.5651 0 0
              CHANNELS 6 Xposition Yposition Zposition Zrotation Xrotation Yrotation
              JOINT LeftHand
              {
                OFFSET -25.3936 0 0
                CHANNELS 6 Xposition Yposition Zposition Zrotation Xrotation Yrotation
                JOINT LeftFingerBase
                {
                  OFFSET -2.18182 -0.000553688 0
                  CHANNELS 6 Xposition Yposition Zposition Zrotation Xrotation Yrotation
                  JOINT LeftHandMiddle1
                  {
                    OFFSET -6.77445 -0.0859989 1.22158
                    CHANNELS 6 Xposition Yposition Zposition Zrotation Xrotation Yrotation
                    End Site
                    {
                      OFFSET 0 0 0
                    }
                  }
                }
              }
            }
          }
        }
      }
    }
  }
  JOINT RightUpLeg
  {
    OFFSET -8.89671 -5.28428 -4.10676
    CHANNELS 6 Xposition Yposition Zposition Zrotation Xrotation Yrotation
    JOINT RightLeg
    {
      OFFSET 43.6759 0 0
      CHANNELS 6 Xposition Yposition Zposition Zrotation Xrotation Yrotation
      JOINT RightFoot
      {
        OFFSET 45.3154 0 0
        CHANNELS 6 Xposition Yposition Zposition Zrotation Xrotation Yrotation
        JOINT RightToeBase
        {
          OFFSET 14.6877 0 0
          CHANNELS 6 Xposition Yposition Zposition Zrotation Xrotation Yrotation
          End Site
          {
            OFFSET 7.03218 0 0
          }
        }
      }
    }
  }
  JOINT LeftUpLeg
  {
    OFFSET 8.89671 -5.28429 -4.10672
    CHANNELS 6 Xposition Yposition Zposition Zrotation Xrotation Yrotation
    JOINT LeftLeg
    {
      OFFSET -43.676 0 0
      CHANNELS 6 Xposition Yposition Zposition Zrotation Xrotation Yrotation
      JOINT LeftFoot
      {
        OFFSET -45.3154 0 0
        CHANNELS 6 Xposition Yposition Zposition Zrotation Xrotation Yrotation
        JOINT LeftToeBase
        {
          OFFSET -14.6877 0 0
          CHANNELS 6 Xposition Yposition Zposition Zrotation Xrotation Yrotation
          End Site
          {
            OFFSET -7.03217 0 0
          }
        }
      }
    }
  }
}
MOTION
Frames:	8
Frame Time:	0.0333333
7.34872 93.6487 21.9688 82.9162 1.70671 90.9804 0 0 4.66705 -89.5113 0.309531 -90.5531 9.33409 -3.55271e-015 0 -0.691865 0.980857 -7.95402 11.0269 0 -1.77636e-015 -0.804913 0.890458 -4.00358 27.2125 -3.55271e-015 -10.2659 3.33686 -3.13413 14.483 10.9224 -3.55271e-015 -1.06581e-014 -5.14595 -4.42824 1.72763 23.8429 -1.55531 -7.12573 -114.898 -7.55133 -10.6254 14.1892 2.84217e-014 -1.22125e-015 -60.8503 -44.7711 -9.41938 29.5651 2.84217e-014 1.42109e-014 53.2404 13.8721 79.8081 25.3936 -2.84217e-014 3.19744e-014 29.4827 -9.76364 44.4835 2.18163 1.42109e-014 -3.55271e-015 -2.1958e-006 -3.17239e-006 4.4743e-007 6.77462 0.0865053 -1.22157 -21.6739 1.19639 -9.42508 23.8431 1.55531 -7.12577 118.341 8.90133 173.166 -14.1892 0.000694916 -4.44089e-015 -61.6854 -16.4601 -41.6992 -29.5651 0 -4.27958e-007 29.8264 10.907 97.1612 -25.3936 2.7868e-008 -5.56579e-007 30.4371 2.23604 21.4676 -2.18182 -0.000553688 -9.22559e-006 3.59197e-006 9.65062e-007 -6.7379e-007 -6.77445 -0.0859989 1.22158 -21.6739 1.19639 -9.42508 -8.89671 -5.28428 -4.10676 90.9197 -3.94366 93.8494 43.6759 -1.06581e-014 -1.59872e-014 6.23518 4.56388 -46.1265 45.3154 -3.55271e-015 -1.77636e-014 75.3397 -27.8316 90.3682 14.6877 -3.55271e-015 0 7.13108 3.8859e-006 -1.50445e-005 8.89671 -5.28429 -4.10672 91.0229 1.6381 -68.1889 -43.676 7.10543e-015 -3.48883e-006 1.80443 3.95747 -30.2975 -45.3154 -1.06581e-014 3.71138e-006 90.8655 -14.72 91.5843 -14.6877 -1.30235e-006 -3.88953e-006 7.13108 -1.61265e-007 8.06296e-006 
10.1534 91.6592 21.9451 85.292 1.93411 89.8321 0 4.21885e-015 4.66705 -89.7142 0.102858 -90.0671 9.33409 -3.55271e-015 3.55271e-015 -0.0540937 0.572004 -7.23937 11.0269 0 0 -0.122457 0.561338 -3.28899 27.2125 -1.06581e-014 -10.2659 3.1272 -3.06813 15.7311 10.9224 -3.55271e-015 -4.44089e-015 -5.19061 -4.23565 -0.1135 23.8429 -1.55531 -7.12573 -115.337 -7.46221 -10.8138 14.1892 0 -1.77636e-015 -60.6292 -45.5258 -9.07686 29.5651 2.84217e-014 7.10543e-015 45.7824 14.0504 81.5072 25.3936 -1.42109e-014 2.84217e-014 24.4044 -6.82568 35.9298 2.18163 1.42109e-014 1.77636e-015 -2.1958e-006 -3.17239e-006 4.4743e-007 6.77462 0.0865053 -1.22157 -21.6739 1.19639 -9.42508 23.8431 1.55531 -7.12577 118.343 8.94609 173.279 -14.1892 0.000694916 -6.99441e-015 -62.481 -20.6304 -39.2016 -29.5651 8.88178e-016 -4.27958e-007 27.9027 14.0658 99.8406 -25.3936 2.7868e-008 -5.56579e-007 32.0869 2.47159 22.6505 -2.18182 -0.000553688 -9.22559e-006 3.59197e-006 9.65062e-007 -6.7379e-007 -6.77445 -0.0859989 1.22158 -21.6739 1.19639 -9.42508 -8.89671 -5.28428 -4.10676 90.0304 -2.56062 96.9028 43.6759 -1.06581e-014 -1.77636e-014 7.13776 2.60751 -57.8466 45.3154 -3.55271e-015 -1.06581e-014 75.1318 -26.8981 90.4859 14.6877 -3.55271e-015 -3.55271e-015 7.13108 3.8859e-006 -1.50445e-005 8.89671 -5.28429 -4.10672 90.3471 2.81215 -70.3935 -43.676 7.10543e-015 -3.48883e-006 2.39725 4.54733 -33.7374 -45.3154 -7.10543e-015 3.71138e-006 93.3461 -10.9576 91.3019 -14.6877 -1.30235e-006 -3.88953e-006 7.13108 -1.61265e-007 8.06296e-006 
12.8072 89.3471 21.9001 87.4384 1.78164 88.2279 -3.55271e-015 0 4.66705 -89.8471 -0.459269 -89.8866 9.33409 -3.55271e-015 3.55271e-015 0.852642 0.307772 -6.54891 11.0269 -3.55271e-015 3.55271e-015 0.80946 0.408121 -2.59949 27.2125 -7.10543e-015 -10.2659 2.71984 -3.13665 16.8991 10.9224 0 -7.10543e-015 -5.28821 -4.10296 -1.76786 23.8429 -1.55531 -7.12573 -116.235 -7.23431 -11.305 14.1892 0 0 -59.164 -44.9343 -7.43869 29.5651 2.84217e-014 1.42109e-014 38.0648 12.0334 82.1623 25.3936 -2.84217e-014 2.13163e-014 20.7017 -2.58123 24.6413 2.18163 2.84217e-014 7.10543e-015 -2.1958e-006 -3.17239e-006 4.4743e-007 6.77462 0.0865053 -1.22157 -21.6739 1.19639 -9.42508 23.8431 1.55531 -7.12577 118.853 8.82914 172.997 -14.1892 0.000694916 -6.21725e-015 -61.1418 -24.8865 -34.0776 -29.5651 0 -4.27958e-007 26.896 16.1315 101.87 -25.3936 2.7868e-008 -5.56579e-007 32.5912 2.51672 23.4172 -2.18182 -0.000553688 -9.22559e-006 3.59197e-006 9.65062e-007 -6.7379e-007 -6.77445 -0.0859989 1.22158 -21.6739 1.19639 -9.42508 -8.89671 -5.28428 -4.10676 89.3862 -0.46538 100.515 43.6759 -3.55271e-015 -1.42109e-014 8.35527 0.774577 -68.1783 45.3154 -7.10543e-015 -2.13163e-014 76.6155 -23.9904 90.9774 14.6877 -1.77636e-015 0 7.13108 3.8859e-006 -1.50445e-005 8.89671 -5.28429 -4.10672 89.3161 4.51293 -72.1703 -43.676 7.10543e-015 -3.48883e-006 3.9866 5.81082 -38.1345 -45.3154 -3.55271e-015 3.71138e-006 94.6032 -5.19423 91.6029 -14.6877 -1.30235e-006 -3.88953e-006 7.13108 -1.61265e-007 8.06296e-006 
15.3272 87.3891 21.9291 88.4862 1.48872 86.8515 0 1.77636e-015 4.66705 -89.9117 -0.848465 -89.5999 9.33409 0 1.77636e-015 1.7101 0.181954 -6.14535 11.0269 0 0 1.67575 0.386401 -2.19823 27.2125 -3.55271e-015 -10.2659 2.22392 -3.46962 17.521 10.9224 0 -7.10543e-015 -5.52544 -4.21801 -2.4967 23.8429 -1.55531 -7.12573 -117.274 -6.96038 -11.8726 14.1892 0 -1.77636e-015 -57.1117 -42.4225 -5.54155 29.5651 2.13163e-014 0 33.5768 7.20218 79.4381 25.3936 -2.84217e-014 4.26326e-014 20.4705 -0.373057 17.6797 2.18163 1.42109e-014 1.42109e-014 -2.1958e-006 -3.17239e-006 4.4743e-007 6.77462 0.0865053 -1.22157 -21.6739 1.19639 -9.42508 23.8431 1.55531 -7.12577 119.509 8.68565 172.659 -14.1892 0.000694916 -5.32907e-015 -57.7566 -28.4367 -25.922 -29.5651 8.88178e-016 -4.27958e-007 27.4857 16.6779 102.274 -25.3936 2.7868e-008 -5.56579e-007 31.2482 2.25768 23.0866 -2.18182 -0.000553688 -9.22559e-006 3.59197e-006 9.65062e-007 -6.7379e-007 -6.77445 -0.0859989 1.22158 -21.6739 1.19639 -9.42508 -8.89671 -5.28428 -4.10676 89.43 1.48095 105.424 43.6759 -1.06581e-014 -1.42109e-014 9.86872 -0.584899 -75.8783 45.3154 0 -1.77636e-014 79.104 -20.2266 91.482 14.6877 -2.66454e-015 -7.10543e-015 7.13108 3.8859e-006 -1.50445e-005 8.89671 -5.28429 -4.10672 88.6536 5.92414 -73.0252 -43.676 7.10543e-015 -3.48883e-006 5.35591 6.65881 -42.1152 -45.3154 -7.10543e-015 3.71138e-006 94.5681 -0.239745 89.9828 -14.6877 -1.30235e-006 -3.88953e-006 7.13108 -1.61265e-007 8.06296e-006 
17.8692 86.3948 22.1009 88.6321 1.56614 86.4523 3.55271e-015 0 4.66705 -89.9755 -1.0904 -89.5169 9.33409 -3.55271e-015 0 2.17977 0.0581457 -5.9455 11.0269 -3.55271e-015 0 2.15693 0.320041 -2.00031 27.2125 -3.55271e-015 -10.2659 1.77321 -4.00388 17.7288 10.9224 0 -6.66134e-015 -5.75439 -4.56565 -2.41523 23.8429 -1.55531 -7.12573 -118.036 -6.78675 -12.2008 14.1892 0 0 -55.5039 -39.2507 -5.0541 29.5651 2.13163e-014 1.42109e-014 32.0539 1.14625 75.4599 25.3936 -2.84217e-014 2.13163e-014 23.2368 -1.603 17.0541 2.18163 2.84217e-014 0 -2.1958e-006 -3.17239e-006 4.4743e-007 6.77462 0.0865053 -1.22157 -21.6739 1.19639 -9.42508 23.8431 1.55531 -7.12577 119.758 8.69689 172.693 -14.1892 0.000694916 -5.32907e-015 -54.137 -30.9179 -16.2324 -29.5651 8.88178e-016 -4.27958e-007 29.2207 16.1413 101.39 -25.3936 2.7868e-008 -5.56579e-007 29.0297 1.93222 21.6953 -2.18182 -0.000553688 -9.22559e-006 3.59197e-006 9.65062e-007 -6.7379e-007 -6.77445 -0.0859989 1.22158 -21.6739 1.19639 -9.42508 -8.89671 -5.28428 -4.10676 89.9524 2.30111 110.763 43.6759 -1.06581e-014 -2.13163e-014 11.2571 -0.999759 -79.4966 45.3154 -7.10543e-015 -2.4869e-014 81.5293 -16.9297 91.7677 14.6877 -1.77636e-015 0 7.13108 3.8859e-006 -1.50445e-005 8.89671 -5.28429 -4.10672 88.8544 6.18904 -73.865 -43.676 7.10543e-015 -3.48883e-006 5.4799 6.50805 -44.3306 -45.3154 -3.55271e-015 3.71138e-006 94.2245 2.40336 91.0496 -14.6877 -1.30235e-006 -3.88953e-006 7.13108 -1.61265e-007 8.06296e-006 
20.6172 86.5887 22.4033 88.4993 2.01296 87.1185 3.55271e-015 0 4.66705 -90.1317 -1.06767 -89.4477 9.33409 -3.55271e-015 3.55271e-015 2.13576 -0.253057 -5.80315 11.0269 -3.55271e-015 -3.55271e-015 2.15067 0.00581623 -1.8579 27.2125 -7.10543e-015 -10.2659 1.36835 -4.46809 18.0284 10.9224 -3.55271e-015 -9.32587e-015 -5.6744 -4.85943 -2.14875 23.8429 -1.55531 -7.12573 -118.333 -6.76846 -12.2007 14.1892 2.84217e-014 0 -54.7087 -37.5879 -6.69087 29.5651 2.84217e-014 1.42109e-014 31.4156 -2.48266 73.0769 25.3936 -2.84217e-014 3.55271e-014 27.5083 -3.97382 18.0318 2.18163 2.84217e-014 -3.55271e-015 -2.1958e-006 -3.17239e-006 4.4743e-007 6.77462 0.0865053 -1.22157 -21.6739 1.19639 -9.42508 23.8431 1.55531 -7.12577 119.365 8.88445 173.144 -14.1892 0.000694916 -5.32907e-015 -52.1749 -33.0069 -7.83538 -29.5651 1.77636e-015 -4.27958e-007 30.5405 15.6538 100.709 -25.3936 2.7868e-008 -5.56579e-007 27.5334 1.79896 20.2436 -2.18182 -0.000553688 -9.22559e-006 3.59197e-006 9.65062e-007 -6.7379e-007 -6.77445 -0.0859989 1.22158 -21.6739 1.19639 -9.42508 -8.89671 -5.28428 -4.10676 90.5531 1.9128 115.046 43.6759 -7.10543e-015 -2.84217e-014 12.3203 -0.432681 -78.2177 45.3154 0 -2.22045e-014 83.1883 -14.6134 91.8769 14.6877 0 -7.10543e-015 7.13108 3.8859e-006 -1.50445e-005 8.89671 -5.28429 -4.10672 89.6999 5.21576 -75.8187 -43.676 7.10543e-015 -3.48883e-006 4.69707 5.64174 -44.0059 -45.3154 -3.55271e-015 3.71138e-006 93.9381 2.6227 91.095 -14.6877 -1.30235e-006 -3.88953e-006 7.13108 -1.61265e-007 8.06296e-006 
23.6651 87.8764 22.7573 88.268 2.53753 88.339 0 0 4.66705 -90.4366 -0.875451 -89.4349 9.33409 -3.55271e-015 3.55271e-015 1.75777 -0.86427 -5.76867 11.0269 -7.10543e-015 0 1.84898 -0.646418 -1.82142 27.2125 -7.10543e-015 -10.2659 0.881105 -4.61471 18.7795 10.9224 -3.55271e-015 -2.44249e-015 -5.09074 -4.79613 -1.98831 23.8429 -1.55531 -7.12573 -118.259 -6.85351 -11.9981 14.1892 2.84217e-014 0 -54.6892 -38.5539 -9.98391 29.5651 2.84217e-014 0 30.4659 -0.82652 73.5504 25.3936 -4.26326e-014 3.55271e-014 29.6726 -4.87255 17.2686 2.18163 4.26326e-014 -1.06581e-014 -2.1958e-006 -3.17239e-006 4.4743e-007 6.77462 0.0865053 -1.22157 -21.6739 1.19639 -9.42508 23.8431 1.55531 -7.12577 118.53 9.1128 173.702 -14.1892 0.000694916 -5.32907e-015 -52.2519 -35.8201 -2.7916 -29.5651 -1.77636e-015 -4.27958e-007 30.3423 16.4018 101.378 -25.3936 2.7868e-008 -5.56579e-007 27.5369 1.86582 19.6776 -2.18182 -0.000553688 -9.22559e-006 3.59197e-006 9.65062e-007 -6.7379e-007 -6.77445 -0.0859989 1.22158 -21.6739 1.19639 -9.42508 -8.89671 -5.28428 -4.10676 91.0049 0.940268 117.429 43.6759 -1.06581e-014 -2.13163e-014 12.8949 1.43283 -72.2057 45.3154 -7.10543e-015 -2.22045e-014 84.0945 -13.3437 91.9015 14.6877 -3.55271e-015 -7.10543e-015 7.13108 3.8859e-006 -1.50445e-005 8.89671 -5.28429 -4.10672 90.5731 3.70736 -79.1409 -43.676 7.10543e-015 -3.48883e-006 3.94071 4.65684 -40.9627 -45.3154 -7.10543e-015 3.71138e-006 93.4777 0.371114 89.959 -14.6877 -1.30235e-006 -3.88953e-006 7.13108 -1.61265e-007 8.06296e-006 
27.0056 89.9016 23.0836 87.7878 2.84924 89.4627 0 0 4.66705 -90.8363 -0.668737 -89.5342 9.33409 -3.55271e-015 0 1.34477 -1.66682 -5.95088 11.0269 -3.55271e-015 -7.10543e-015 1.53562 -1.49285 -2.00034 27.2125 -3.55271e-015 -10.2659 0.266062 -4.4526 20.006 10.9224 -7.10543e-015 -1.59872e-014 -4.0565 -4.36927 -1.71662 23.8429 -1.55531 -7.12573 -117.972 -6.98889 -11.699 14.1892 2.84217e-014 0 -55.5779 -41.642 -14.4256 29.5651 2.84217e-014 0 29.2031 4.20818 76.1422 25.3936 -4.26326e-014 2.84217e-014 28.8135 -4.08621 15.5729 2.18163 2.84217e-014 3.55271e-015 -2.1958e-006 -3.17239e-006 4.4743e-007 6.77462 0.0865053 -1.22157 -21.6739 1.19639 -9.42508 23.8431 1.55531 -7.12577 117.506 9.2901 174.154 -14.1892 0.000694916 -1.06581e-014 -53.7581 -39.814 -1.31103 -29.5651 -3.55271e-015 -4.27958e-007 29.1411 18.6029 103.31 -25.3936 2.7868e-008 -5.56579e-007 28.8461 2.01088 20.6065 -2.18182 -0.000553688 -9.22559e-006 3.59197e-006 9.65062e-007 -6.7379e-007 -6.77445 -0.0859989 1.22158 -21.6739 1.19639 -9.42508 -8.89671 -5.28428 -4.10676 91.2496 0.116913 117.863 43.6759 -7.10543e-015 -2.84217e-014 12.508 4.26933 -62.4515 45.3154 -7.10543e-015 -1.77636e-014 84.6397 -13.1542 91.8806 14.6877 -3.55271e-015 -7.10543e-015 7.13108 3.8859e-006 -1.50445e-005 8.89671 -5.28429 -4.10672 91.1707 2.35825 -83.1937 -43.676 7.10543e-015 -3.48883e-006 3.57709 4.0214 -36.0074 -45.3154 -7.10543e-015 3.71138e-006 92.7646 -3.93948 92.0167 -14.6877 -1.30235e-006 -3.88953e-006 7.13108 -1.61265e-007 8.06296e-006 
